Coordinates
version=1
nRows=10
nColumns=23
inDegrees=yes

Units are S.I. units (second, meters, Newtons, ...)
If the header above contains a line with 'inDegrees', this indicates whether rotational values are in degrees (yes) or radians (no).

endheader
time	pelvis_tilt	pelvis_list	pelvis_rotation	pelvis_tx	pelvis_ty	pelvis_tz	hip_flexion_r	hip_adduction_r	hip_rotation_r	knee_angle_r	knee_angle_r_beta	ankle_angle_r	subtalar_angle_r	mtp_angle_r	hip_flexion_l	hip_adduction_l	hip_rotation_l	knee_angle_l	knee_angle_l_beta	ankle_angle_l	subtalar_angle_l	mtp_angle_l
     15.00000000	     -6.01478368	      6.46610964	      6.32761808	      2.27621008	      1.06960255	      1.01225215	     -4.60146830	    -11.30693626	    -11.92758830	     67.15622169	      1.17209718	    -18.19127677	     11.75836642	      0.00000000	     17.86047824	      9.72131063	      1.83711564	      9.96101494	      0.17385251	     12.85786642	      4.73519152	      0.00000000
     15.00666667	     -5.82124213	      6.76583223	      6.73278875	      2.27484594	      1.06416944	      1.01163738	     -3.85278511	    -11.91684823	    -11.71439230	     70.45587155	      1.22968694	    -19.40344737	     11.41087714	      0.00000000	     18.40275374	     10.04689183	      1.41272047	     12.53562227	      0.21878788	     12.88791565	      5.11349220	      0.00000000
     15.01333333	     -5.58713873	      7.06075980	      7.17363523	      2.27337585	      1.05841803	      1.01105542	     -3.12599887	    -12.51193808	    -11.52329583	     73.68992753	      1.28613186	    -20.61954086	     10.94181081	      0.00000000	     18.90882108	     10.40499638	      1.33817752	     15.28231830	      0.26672677	     12.58557615	      4.80485602	      0.00000000
     15.02000000	     -5.38047918	      7.27697116	      7.50723026	      2.27164947	      1.05229294	      1.01055992	     -2.23746218	    -13.06847499	    -11.21721858	     76.93314068	      1.34273661	    -21.65339135	     10.58592354	      0.00000000	     19.54042487	     10.65586734	      1.15679767	     18.29776872	      0.31935631	     12.41491067	      4.32232046	      0.00000000
     15.02666667	     -5.23519001	      7.47525700	      7.76309434	      2.26976676	      1.04582219	      1.01026531	     -1.18646898	    -13.58862946	    -10.77188011	     80.14818713	      1.39884975	    -22.46471641	     10.27969847	      0.00000000	     20.27377165	     10.88560791	      1.00922247	     21.46166536	      0.37457672	     12.37068409	      3.64449483	      0.00000000
     15.03333333	     -5.01914319	      7.65087421	      8.00045463	      2.26769054	      1.03932388	      1.01001569	     -0.15342375	    -14.06920120	    -10.30503245	     83.26624936	      1.45327021	    -23.13042491	      9.97380515	      0.00000000	     20.90811858	     11.14248382	      1.10911490	     24.65092576	      0.43023982	     12.62058096	      2.67965152	      0.00000000
     15.04000000	     -4.97389882	      7.80422504	      8.16826353	      2.26534421	      1.03250563	      1.00989057	      1.19951765	    -14.56307383	     -9.72820188	     86.38766189	      1.50774913	    -23.40261781	      9.80227735	      0.00000000	     21.74261698	     11.39328794	      1.15903283	     27.89249527	      0.48681588	     13.07275639	      1.68626214	      0.00000000
     15.04666667	     -4.84050646	      7.91963493	      8.33326309	      2.26286965	      1.02591539	      1.00981400	      2.50574566	    -14.97449360	     -9.14252789	     89.35985893	      1.55962376	    -23.47584061	      9.64831722	      0.00000000	     22.41466019	     11.65975165	      1.42198334	     31.05493318	      0.54201083	     13.94531592	      0.63713240	      0.00000000
     15.05333333	     -4.69889711	      8.01638694	      8.47114904	      2.26030615	      1.01953868	      1.00980338	      3.87465140	    -15.34974336	     -8.52396236	     92.20618622	      1.60930154	    -23.27692287	      9.60482548	      0.00000000	     22.98474000	     11.93861066	      1.76720006	     34.07878999	      0.59478709	     15.09608109	     -0.34993399	      0.00000000
     15.06000000	     -4.16015461	      8.09087865	      8.58856151	      2.25784271	      1.01412386	      1.00986094	      4.80517552	    -15.60465228	     -7.97242886	     94.76430844	      1.65394920	    -22.93774992	      9.51342438	      0.00000000	     22.92834732	     12.17724924	      2.26200456	     36.78706565	      0.64205542	     16.51810418	     -1.19114881	      0.00000000
